<svg width="555" height="268" viewBox="0 0 555 268" fill="none" xmlns="http://www.w3.org/2000/svg">
<path d="M212.227 129.177L250.085 61.4491L276.91 13.4646C281.345 5.52932 289.727 0.61145 298.819 0.61145H328.33L271.646 98.7947L244.81 145.277C239.634 154.241 226.695 154.241 221.519 145.277L212.227 129.177Z" fill="url(#paint0_linear_112_650)"/>
<path d="M188.452 88.0033L212.064 45.7632L227.303 72.1543L203.691 114.394L188.452 88.0033Z" fill="url(#paint1_linear_112_650)"/>
<path d="M138 0.609619H171.503C180.471 0.609619 188.758 5.39301 193.24 13.1597L203.53 30.9809L179.917 73.2121L138 0.609619Z" fill="url(#paint2_linear_112_650)"/>
<path d="M212.064 45.7632L190.859 92.1718L188.452 88.0034L212.064 45.7632Z" fill="url(#paint3_linear_112_650)"/>
<path d="M238.022 83.0299L216.164 135.995L212.227 129.177L238.022 83.0299Z" fill="url(#paint4_linear_112_650)"/>
<path fill-rule="evenodd" clip-rule="evenodd" d="M333.992 144.667L417.513 0H355.04C347.896 0 341.173 3.03893 336.466 8.21138C336.466 8.21153 336.466 8.21168 336.466 8.21183L336.466 8.21094C335.274 9.5287 334.207 10.972 333.302 12.5497L296.242 76.7443L283.859 98.1853L288.837 106.806L288.835 106.809L310.697 144.669C313.602 149.7 318.952 151.907 324.002 151.29C327.953 150.81 331.72 148.602 333.992 144.667Z" fill="url(#paint5_linear_112_650)"/>
<path d="M43.176 221.516L35.49 251H26.796L22.092 231.596L17.22 251H8.526L1.05 221.516H8.736L12.978 242.978L18.228 221.516H26.124L31.164 242.978L35.448 221.516H43.176ZM45.3498 239.24C45.3498 236.832 45.7978 234.718 46.6938 232.898C47.6178 231.078 48.8638 229.678 50.4318 228.698C51.9998 227.718 53.7498 227.228 55.6818 227.228C57.3338 227.228 58.7758 227.564 60.0078 228.236C61.2678 228.908 62.2338 229.79 62.9058 230.882V227.564H70.0878V251H62.9058V247.682C62.2058 248.774 61.2258 249.656 59.9658 250.328C58.7338 251 57.2918 251.336 55.6398 251.336C53.7358 251.336 51.9998 250.846 50.4318 249.866C48.8638 248.858 47.6178 247.444 46.6938 245.624C45.7978 243.776 45.3498 241.648 45.3498 239.24ZM62.9058 239.282C62.9058 237.49 62.4018 236.076 61.3938 235.04C60.4138 234.004 59.2098 233.486 57.7818 233.486C56.3538 233.486 55.1358 234.004 54.1278 235.04C53.1478 236.048 52.6578 237.448 52.6578 239.24C52.6578 241.032 53.1478 242.46 54.1278 243.524C55.1358 244.56 56.3538 245.078 57.7818 245.078C59.2098 245.078 60.4138 244.56 61.3938 243.524C62.4018 242.488 62.9058 241.074 62.9058 239.282ZM82.4657 219.92V251H75.2837V219.92H82.4657ZM94.8524 219.92V251H87.6704V219.92H94.8524ZM123.997 227.564L109.297 262.13H101.569L106.945 250.202L97.4111 227.564H105.433L110.851 242.222L116.227 227.564H123.997ZM159.984 221.516V251H152.802V233.318L146.208 251H140.412L133.776 233.276V251H126.594V221.516H135.078L143.352 241.928L151.542 221.516H159.984ZM163.721 239.24C163.721 236.832 164.169 234.718 165.065 232.898C165.989 231.078 167.235 229.678 168.803 228.698C170.371 227.718 172.121 227.228 174.053 227.228C175.705 227.228 177.147 227.564 178.379 228.236C179.639 228.908 180.605 229.79 181.277 230.882V227.564H188.459V251H181.277V247.682C180.577 248.774 179.597 249.656 178.337 250.328C177.105 251 175.663 251.336 174.011 251.336C172.107 251.336 170.371 250.846 168.803 249.866C167.235 248.858 165.989 247.444 165.065 245.624C164.169 243.776 163.721 241.648 163.721 239.24ZM181.277 239.282C181.277 237.49 180.773 236.076 179.765 235.04C178.785 234.004 177.581 233.486 176.153 233.486C174.725 233.486 173.507 234.004 172.499 235.04C171.519 236.048 171.029 237.448 171.029 239.24C171.029 241.032 171.519 242.46 172.499 243.524C173.507 244.56 174.725 245.078 176.153 245.078C177.581 245.078 178.785 244.56 179.765 243.524C180.773 242.488 181.277 241.074 181.277 239.282ZM207.515 251L203.021 244.49L199.241 251H191.471L199.199 239.03L191.261 227.564H199.325L203.819 234.032L207.599 227.564H215.369L207.515 239.366L215.579 251H207.515ZM242.241 234.2V236.678H225.903V234.2H242.241ZM259.375 243.86V241.634L274.663 221.054H278.149V241.298H282.643V243.86H278.149V251H275.251V243.86H259.375ZM275.377 224.288L262.777 241.298H275.377V224.288ZM302.731 251L290.005 237.434V251H287.065V221.642H290.005V235.376L302.731 221.642H306.469L292.735 236.3L306.595 251H302.731ZM358.078 221.642L349.762 251H346.486L339.094 225.968L331.534 251L328.342 251.042L320.194 221.642H323.344L330.064 247.388L337.582 221.642H340.858L348.166 247.388L354.928 221.642H358.078ZM361.231 239.492C361.231 237.14 361.693 235.082 362.617 233.318C363.569 231.526 364.871 230.154 366.523 229.202C368.203 228.222 370.093 227.732 372.193 227.732C374.377 227.732 376.253 228.236 377.821 229.244C379.417 230.252 380.565 231.54 381.265 233.108V228.068H384.205V251H381.265V245.918C380.537 247.486 379.375 248.788 377.779 249.824C376.211 250.832 374.335 251.336 372.151 251.336C370.079 251.336 368.203 250.846 366.523 249.866C364.871 248.886 363.569 247.5 362.617 245.708C361.693 243.916 361.231 241.844 361.231 239.492ZM381.265 239.534C381.265 237.686 380.887 236.062 380.131 234.662C379.375 233.262 378.339 232.184 377.023 231.428C375.735 230.672 374.307 230.294 372.739 230.294C371.115 230.294 369.659 230.658 368.371 231.386C367.083 232.114 366.061 233.178 365.305 234.578C364.577 235.95 364.213 237.588 364.213 239.492C364.213 241.368 364.577 243.02 365.305 244.448C366.061 245.848 367.083 246.926 368.371 247.682C369.659 248.41 371.115 248.774 372.739 248.774C374.307 248.774 375.735 248.396 377.023 247.64C378.339 246.884 379.375 245.806 380.131 244.406C380.887 243.006 381.265 241.382 381.265 239.534ZM393.857 219.92V251H390.917V219.92H393.857ZM403.454 219.92V251H400.514V219.92H403.454ZM413.01 233.108C413.738 231.568 414.886 230.294 416.454 229.286C418.05 228.25 419.94 227.732 422.124 227.732C424.196 227.732 426.058 228.222 427.71 229.202C429.39 230.154 430.692 231.526 431.616 233.318C432.568 235.082 433.044 237.14 433.044 239.492C433.044 241.844 432.568 243.916 431.616 245.708C430.692 247.5 429.39 248.886 427.71 249.866C426.058 250.846 424.196 251.336 422.124 251.336C419.968 251.336 418.092 250.832 416.496 249.824C414.9 248.788 413.738 247.5 413.01 245.96V261.836H410.112V228.068H413.01V233.108ZM430.062 239.492C430.062 237.588 429.684 235.95 428.928 234.578C428.2 233.178 427.192 232.114 425.904 231.386C424.616 230.658 423.16 230.294 421.536 230.294C419.968 230.294 418.526 230.672 417.21 231.428C415.922 232.184 414.9 233.262 414.144 234.662C413.388 236.062 413.01 237.686 413.01 239.534C413.01 241.382 413.388 243.006 414.144 244.406C414.9 245.806 415.922 246.884 417.21 247.64C418.526 248.396 419.968 248.774 421.536 248.774C423.16 248.774 424.616 248.41 425.904 247.682C427.192 246.926 428.2 245.848 428.928 244.448C429.684 243.02 430.062 241.368 430.062 239.492ZM437.11 239.492C437.11 237.14 437.572 235.082 438.496 233.318C439.448 231.526 440.75 230.154 442.402 229.202C444.082 228.222 445.972 227.732 448.072 227.732C450.256 227.732 452.132 228.236 453.7 229.244C455.296 230.252 456.444 231.54 457.144 233.108V228.068H460.084V251H457.144V245.918C456.416 247.486 455.254 248.788 453.658 249.824C452.09 250.832 450.214 251.336 448.03 251.336C445.958 251.336 444.082 250.846 442.402 249.866C440.75 248.886 439.448 247.5 438.496 245.708C437.572 243.916 437.11 241.844 437.11 239.492ZM457.144 239.534C457.144 237.686 456.766 236.062 456.01 234.662C455.254 233.262 454.218 232.184 452.902 231.428C451.614 230.672 450.186 230.294 448.618 230.294C446.994 230.294 445.538 230.658 444.25 231.386C442.962 232.114 441.94 233.178 441.184 234.578C440.456 235.95 440.092 237.588 440.092 239.492C440.092 241.368 440.456 243.02 441.184 244.448C441.94 245.848 442.962 246.926 444.25 247.682C445.538 248.41 446.994 248.774 448.618 248.774C450.186 248.774 451.614 248.396 452.902 247.64C454.218 246.884 455.254 245.806 456.01 244.406C456.766 243.006 457.144 241.382 457.144 239.534ZM469.694 233.108C470.422 231.568 471.57 230.294 473.138 229.286C474.734 228.25 476.624 227.732 478.808 227.732C480.88 227.732 482.742 228.222 484.394 229.202C486.074 230.154 487.376 231.526 488.3 233.318C489.252 235.082 489.728 237.14 489.728 239.492C489.728 241.844 489.252 243.916 488.3 245.708C487.376 247.5 486.074 248.886 484.394 249.866C482.742 250.846 480.88 251.336 478.808 251.336C476.652 251.336 474.776 250.832 473.18 249.824C471.584 248.788 470.422 247.5 469.694 245.96V261.836H466.796V228.068H469.694V233.108ZM486.746 239.492C486.746 237.588 486.368 235.95 485.612 234.578C484.884 233.178 483.876 232.114 482.588 231.386C481.3 230.658 479.844 230.294 478.22 230.294C476.652 230.294 475.21 230.672 473.894 231.428C472.606 232.184 471.584 233.262 470.828 234.662C470.072 236.062 469.694 237.686 469.694 239.534C469.694 241.382 470.072 243.006 470.828 244.406C471.584 245.806 472.606 246.884 473.894 247.64C475.21 248.396 476.652 248.774 478.22 248.774C479.844 248.774 481.3 248.41 482.588 247.682C483.876 246.926 484.884 245.848 485.612 244.448C486.368 243.02 486.746 241.368 486.746 239.492ZM515.885 238.358C515.885 239.366 515.857 240.136 515.801 240.668H496.775C496.859 242.404 497.279 243.888 498.035 245.12C498.791 246.352 499.785 247.29 501.017 247.934C502.249 248.55 503.593 248.858 505.049 248.858C506.953 248.858 508.549 248.396 509.837 247.472C511.153 246.548 512.021 245.302 512.441 243.734H515.549C514.989 245.974 513.785 247.808 511.937 249.236C510.117 250.636 507.821 251.336 505.049 251.336C502.893 251.336 500.961 250.86 499.253 249.908C497.545 248.928 496.201 247.556 495.221 245.792C494.269 244 493.793 241.914 493.793 239.534C493.793 237.154 494.269 235.068 495.221 233.276C496.173 231.484 497.503 230.112 499.211 229.16C500.919 228.208 502.865 227.732 505.049 227.732C507.233 227.732 509.137 228.208 510.761 229.16C512.413 230.112 513.673 231.4 514.541 233.024C515.437 234.62 515.885 236.398 515.885 238.358ZM512.903 238.274C512.931 236.566 512.581 235.11 511.853 233.906C511.153 232.702 510.187 231.792 508.955 231.176C507.723 230.56 506.379 230.252 504.923 230.252C502.739 230.252 500.877 230.952 499.337 232.352C497.797 233.752 496.943 235.726 496.775 238.274H512.903ZM524.204 232.142C524.848 230.714 525.828 229.608 527.144 228.824C528.488 228.04 530.126 227.648 532.058 227.648V230.714H531.26C529.132 230.714 527.424 231.288 526.136 232.436C524.848 233.584 524.204 235.502 524.204 238.19V251H521.264V228.068H524.204V232.142ZM544.377 251.336C541.745 251.336 539.589 250.734 537.909 249.53C536.257 248.298 535.333 246.632 535.137 244.532H538.161C538.301 245.82 538.903 246.87 539.967 247.682C541.059 248.466 542.515 248.858 544.335 248.858C545.931 248.858 547.177 248.48 548.073 247.724C548.997 246.968 549.459 246.03 549.459 244.91C549.459 244.126 549.207 243.482 548.703 242.978C548.199 242.474 547.555 242.082 546.771 241.802C546.015 241.494 544.979 241.172 543.663 240.836C541.955 240.388 540.569 239.94 539.505 239.492C538.441 239.044 537.531 238.386 536.775 237.518C536.047 236.622 535.683 235.432 535.683 233.948C535.683 232.828 536.019 231.792 536.691 230.84C537.363 229.888 538.315 229.132 539.547 228.572C540.779 228.012 542.179 227.732 543.747 227.732C546.211 227.732 548.199 228.362 549.711 229.622C551.223 230.854 552.035 232.562 552.147 234.746H549.207C549.123 233.402 548.591 232.324 547.611 231.512C546.659 230.672 545.343 230.252 543.663 230.252C542.179 230.252 540.975 230.602 540.051 231.302C539.127 232.002 538.665 232.87 538.665 233.906C538.665 234.802 538.931 235.544 539.463 236.132C540.023 236.692 540.709 237.14 541.521 237.476C542.333 237.784 543.425 238.134 544.797 238.526C546.449 238.974 547.765 239.408 548.745 239.828C549.725 240.248 550.565 240.864 551.265 241.676C551.965 242.488 552.329 243.566 552.357 244.91C552.357 246.142 552.021 247.248 551.349 248.228C550.677 249.18 549.739 249.936 548.535 250.496C547.331 251.056 545.945 251.336 544.377 251.336Z" fill="white"/>
<defs>
<linearGradient id="paint0_linear_112_650" x1="270.278" y1="0.61145" x2="281.771" y2="152.792" gradientUnits="userSpaceOnUse">
<stop stop-color="#FE0133"/>
<stop offset="1" stop-color="#EF971F"/>
</linearGradient>
<linearGradient id="paint1_linear_112_650" x1="207.877" y1="45.7632" x2="214.903" y2="114.428" gradientUnits="userSpaceOnUse">
<stop stop-color="#FE0133"/>
<stop offset="1" stop-color="#EF971F"/>
</linearGradient>
<linearGradient id="paint2_linear_112_650" x1="170.765" y1="0.609619" x2="175.455" y2="73.707" gradientUnits="userSpaceOnUse">
<stop stop-color="#FE0133"/>
<stop offset="1" stop-color="#EF971F"/>
</linearGradient>
<linearGradient id="paint3_linear_112_650" x1="200.258" y1="45.7632" x2="205.53" y2="92.0803" gradientUnits="userSpaceOnUse">
<stop stop-color="#FE0133"/>
<stop offset="1" stop-color="#EF971F"/>
</linearGradient>
<linearGradient id="paint4_linear_112_650" x1="225.125" y1="83.0299" x2="231.403" y2="135.829" gradientUnits="userSpaceOnUse">
<stop stop-color="#FE0133"/>
<stop offset="1" stop-color="#EF971F"/>
</linearGradient>
<linearGradient id="paint5_linear_112_650" x1="350.686" y1="0" x2="350.686" y2="151.391" gradientUnits="userSpaceOnUse">
<stop stop-color="#6747E7"/>
<stop offset="1" stop-color="#B800DF"/>
</linearGradient>
</defs>
</svg>
