<svg width="30" height="30" viewBox="0 0 30 30" fill="none" xmlns="http://www.w3.org/2000/svg">
<path d="M29.784 28.7859L20.7589 19.7608C22.8093 17.4508 23.8792 14.4329 23.7415 11.3472C23.6038 8.26153 22.2694 5.35087 20.0214 3.23268C17.7733 1.11448 14.7885 -0.0445958 11.7001 0.00131354C8.6117 0.0472229 5.66267 1.29451 3.47859 3.47859C1.29451 5.66267 0.0472229 8.6117 0.00131354 11.7001C-0.0445958 14.7885 1.11448 17.7733 3.23268 20.0214C5.35087 22.2694 8.26153 23.6038 11.3472 23.7415C14.4329 23.8792 17.4508 22.8093 19.7608 20.7589L28.7859 29.784C28.8499 29.8522 28.9272 29.9065 29.0131 29.9437C29.0989 29.9808 29.1914 30 29.285 30C29.3785 30 29.471 29.9808 29.5568 29.9437C29.6427 29.9065 29.72 29.8522 29.784 29.784C29.8522 29.72 29.9065 29.6427 29.9437 29.5568C29.9808 29.471 30 29.3785 30 29.285C30 29.1914 29.9808 29.0989 29.9437 29.0131C29.9065 28.9272 29.8522 28.8499 29.784 28.7859ZM1.4825 11.9049C1.4825 9.84351 2.09376 7.82845 3.23899 6.11451C4.38421 4.40056 6.01196 3.0647 7.91639 2.27586C9.82083 1.48701 11.9164 1.28062 13.9382 1.68276C15.9599 2.08491 17.817 3.07755 19.2746 4.53514C20.7322 5.99273 21.7248 7.84982 22.1269 9.87156C22.5291 11.8933 22.3227 13.9889 21.5339 15.8933C20.745 17.7978 19.4092 19.4255 17.6952 20.5707C15.9813 21.716 13.9662 22.3272 11.9049 22.3272C9.14184 22.3234 6.49306 21.2242 4.53931 19.2704C2.58555 17.3167 1.48627 14.6679 1.4825 11.9049Z" fill="#B6B6B6"/>
</svg>
