<svg width="13" height="23" viewBox="0 0 13 23" fill="none" xmlns="http://www.w3.org/2000/svg">
<path d="M1.73494 22.4134C1.47212 22.4134 1.20929 22.3243 1.0018 22.1334C0.600639 21.7642 0.600639 21.1531 1.0018 20.784L10.0209 12.4839C10.6849 11.8728 10.6849 10.8799 10.0209 10.2688L1.0018 1.96869C0.600639 1.59952 0.600639 0.988466 1.0018 0.61929C1.40295 0.250113 2.06693 0.250113 2.46809 0.61929L11.4872 8.9194C12.1927 9.56864 12.5938 10.447 12.5938 11.3763C12.5938 12.3056 12.2065 13.184 11.4872 13.8333L2.46809 22.1334C2.2606 22.3116 1.99777 22.4134 1.73494 22.4134Z" fill="#C5C5C5"/>
</svg>
