<svg width="67" height="67" viewBox="0 0 67 67" fill="none" xmlns="http://www.w3.org/2000/svg">
<rect width="67" height="67" rx="12" fill="url(#paint0_linear_628_1377)"/>
<path d="M33.6895 8.87129C23.553 8.87129 13.9273 7.96958 10.2507 17.4054C8.73204 21.3026 8.95258 26.3639 8.95258 33.611C8.95258 39.9705 8.74879 45.9474 10.2507 49.8139C13.919 59.2553 23.6228 58.3508 33.684 58.3508C43.3906 58.3508 53.3987 59.3614 57.12 49.8139C58.6415 45.8776 58.4181 40.8917 58.4181 33.611C58.4181 23.9463 58.9513 17.7069 54.2641 13.0225C49.5183 8.27666 43.1002 8.87129 33.6784 8.87129H33.6895ZM31.473 13.3296C52.617 13.2961 55.3082 10.9455 53.823 43.5996C53.2954 55.1488 44.5017 53.8813 33.6923 53.8813C13.9832 53.8813 13.4165 53.3174 13.4165 33.5999C13.4165 13.6534 14.9798 13.3407 31.473 13.324V13.3296ZM46.8941 17.4361C45.2554 17.4361 43.9266 18.765 43.9266 20.4037C43.9266 22.0424 45.2554 23.3712 46.8941 23.3712C48.5328 23.3712 49.8617 22.0424 49.8617 20.4037C49.8617 18.765 48.5328 17.4361 46.8941 17.4361ZM33.6895 20.9062C26.6741 20.9062 20.9875 26.5956 20.9875 33.611C20.9875 40.6265 26.6741 46.3131 33.6895 46.3131C40.705 46.3131 46.3888 40.6265 46.3888 33.611C46.3888 26.5956 40.705 20.9062 33.6895 20.9062ZM33.6895 25.3645C44.591 25.3645 44.605 41.8576 33.6895 41.8576C22.7909 41.8576 22.7741 25.3645 33.6895 25.3645Z" fill="white"/>
<defs>
<linearGradient id="paint0_linear_628_1377" x1="4.49849" y1="62.635" x2="66.5786" y2="8.89483" gradientUnits="userSpaceOnUse">
<stop stop-color="#FFDD55"/>
<stop offset="0.5" stop-color="#FF543E"/>
<stop offset="1" stop-color="#C837AB"/>
</linearGradient>
</defs>
</svg>
