<svg width="81" height="47" viewBox="0 0 81 47" fill="none" xmlns="http://www.w3.org/2000/svg">
<g filter="url(#filter0_i_399_1708)">
<path d="M0.337646 23.493C0.337646 10.793 10.633 0.497681 23.333 0.497681H57.826C70.526 0.497681 80.8214 10.793 80.8214 23.493C80.8214 36.193 70.526 46.4884 57.826 46.4884H23.333C10.633 46.4884 0.337646 36.193 0.337646 23.493Z" fill="#191E31"/>
<path d="M75.0726 23.493C75.0726 33.018 67.3511 40.7395 57.8261 40.7395C48.3011 40.7395 40.5796 33.018 40.5796 23.493C40.5796 13.968 48.3011 6.24646 57.8261 6.24646C67.3511 6.24646 75.0726 13.968 75.0726 23.493Z" fill="white"/>
</g>
<defs>
<filter id="filter0_i_399_1708" x="0.337646" y="0.497681" width="80.4838" height="48.2903" filterUnits="userSpaceOnUse" color-interpolation-filters="sRGB">
<feFlood flood-opacity="0" result="BackgroundImageFix"/>
<feBlend mode="normal" in="SourceGraphic" in2="BackgroundImageFix" result="shape"/>
<feColorMatrix in="SourceAlpha" type="matrix" values="0 0 0 0 0 0 0 0 0 0 0 0 0 0 0 0 0 0 127 0" result="hardAlpha"/>
<feOffset dy="2.29954"/>
<feGaussianBlur stdDeviation="2.29954"/>
<feComposite in2="hardAlpha" operator="arithmetic" k2="-1" k3="1"/>
<feColorMatrix type="matrix" values="0 0 0 0 0 0 0 0 0 0 0 0 0 0 0 0 0 0 0.25 0"/>
<feBlend mode="normal" in2="shape" result="effect1_innerShadow_399_1708"/>
</filter>
</defs>
</svg>
