<svg width="79" height="79" viewBox="0 0 79 79" fill="none" xmlns="http://www.w3.org/2000/svg">
<g filter="url(#filter0_d_399_1712)">
<rect x="5" width="68.986" height="68.986" rx="14.947" fill="#191E31"/>
<path d="M39.535 52.4734C34.6236 52.4734 29.7121 51.6935 25.0537 50.1336C23.283 49.5223 21.934 48.2787 21.3437 46.6556C20.7325 45.0325 20.9432 43.2408 21.9129 41.6388L24.337 37.6126C24.8429 36.7695 25.3066 35.0832 25.3066 34.0924V28.0006C25.3066 20.1592 31.6936 13.7722 39.535 13.7722C47.3764 13.7722 53.7634 20.1592 53.7634 28.0006V34.0924C53.7634 35.0621 54.2271 36.7695 54.733 37.6337L57.136 41.6388C58.0424 43.1564 58.211 44.9903 57.5997 46.6556C56.9885 48.3208 55.6605 49.5856 53.9952 50.1336C49.3578 51.6935 44.4464 52.4734 39.535 52.4734ZM39.535 16.9341C33.4431 16.9341 28.4685 21.8877 28.4685 28.0006V34.0924C28.4685 35.6312 27.8361 37.9078 27.0562 39.2357L24.6321 43.2618C24.1683 44.0418 24.0419 44.8638 24.3159 45.5595C24.5688 46.2761 25.2012 46.8242 26.0655 47.1193C34.8765 50.0704 44.2145 50.0704 53.0256 47.1193C53.7844 46.8664 54.3747 46.2972 54.6487 45.5384C54.9227 44.7795 54.8595 43.9574 54.4379 43.2618L52.0138 39.2357C51.2128 37.8656 50.6015 35.6101 50.6015 34.0714V28.0006C50.6015 21.8877 45.6479 16.9341 39.535 16.9341Z" fill="white"/>
<path d="M43.4558 17.5031C43.3082 17.5031 43.1607 17.482 43.0131 17.4399C42.4018 17.2713 41.8116 17.1448 41.2425 17.0605C39.4508 16.8286 37.7223 16.9551 36.0992 17.4399C35.509 17.6296 34.8766 17.4399 34.4761 16.9972C34.0756 16.5546 33.9491 15.9222 34.181 15.3531C35.0452 13.1398 37.1531 11.6853 39.5561 11.6853C41.9592 11.6853 44.0671 13.1187 44.9313 15.3531C45.1421 15.9222 45.0367 16.5546 44.6362 16.9972C44.32 17.3345 43.8774 17.5031 43.4558 17.5031Z" fill="white"/>
<path d="M39.535 57.2794C37.4482 57.2794 35.4246 56.4362 33.9491 54.9607C32.4735 53.4852 31.6304 51.4616 31.6304 49.3748H34.7922C34.7922 50.6184 35.2981 51.841 36.1835 52.7263C37.0688 53.6116 38.2914 54.1175 39.535 54.1175C42.1488 54.1175 44.2778 51.9886 44.2778 49.3748H47.4397C47.4397 53.7381 43.8984 57.2794 39.535 57.2794Z" fill="white"/>
</g>
<defs>
<filter id="filter0_d_399_1712" x="0.40093" y="0" width="78.1842" height="78.1842" filterUnits="userSpaceOnUse" color-interpolation-filters="sRGB">
<feFlood flood-opacity="0" result="BackgroundImageFix"/>
<feColorMatrix in="SourceAlpha" type="matrix" values="0 0 0 0 0 0 0 0 0 0 0 0 0 0 0 0 0 0 127 0" result="hardAlpha"/>
<feOffset dy="4.59907"/>
<feGaussianBlur stdDeviation="2.29954"/>
<feComposite in2="hardAlpha" operator="out"/>
<feColorMatrix type="matrix" values="0 0 0 0 0 0 0 0 0 0 0 0 0 0 0 0 0 0 0.25 0"/>
<feBlend mode="normal" in2="BackgroundImageFix" result="effect1_dropShadow_399_1712"/>
<feBlend mode="normal" in="SourceGraphic" in2="effect1_dropShadow_399_1712" result="shape"/>
</filter>
</defs>
</svg>
