<svg width="69" height="70" viewBox="0 0 69 70" fill="none" xmlns="http://www.w3.org/2000/svg">
<rect y="0.18335" width="68.986" height="68.986" rx="14.947" fill="#191E31"/>
<path d="M42.9249 57.3364H26.0616C18.3678 57.3364 13.9412 52.9098 13.9412 45.2159V24.1368C13.9412 16.443 18.3678 12.0164 26.0616 12.0164H42.9249C50.6187 12.0164 55.0454 16.443 55.0454 24.1368V45.2159C55.0454 52.9098 50.6187 57.3364 42.9249 57.3364ZM26.0616 15.1782C20.033 15.1782 17.103 18.1082 17.103 24.1368V45.2159C17.103 51.2445 20.033 54.1745 26.0616 54.1745H42.9249C48.9535 54.1745 51.8835 51.2445 51.8835 45.2159V24.1368C51.8835 18.1082 48.9535 15.1782 42.9249 15.1782H26.0616Z" fill="white"/>
<path d="M48.1944 28.8799H43.9786C40.7746 28.8799 38.1819 26.2871 38.1819 23.0831V18.8673C38.1819 18.0031 38.8986 17.2864 39.7628 17.2864C40.6271 17.2864 41.3437 18.0031 41.3437 18.8673V23.0831C41.3437 24.5376 42.5242 25.718 43.9786 25.718H48.1944C49.0587 25.718 49.7754 26.4347 49.7754 27.2989C49.7754 28.1632 49.0587 28.8799 48.1944 28.8799Z" fill="white"/>
<path d="M34.493 38.3652H26.0614C25.1972 38.3652 24.4805 37.6485 24.4805 36.7843C24.4805 35.9201 25.1972 35.2034 26.0614 35.2034H34.493C35.3573 35.2034 36.074 35.9201 36.074 36.7843C36.074 37.6485 35.3573 38.3652 34.493 38.3652Z" fill="white"/>
<path d="M42.9247 46.7971H26.0614C25.1972 46.7971 24.4805 46.0804 24.4805 45.2162C24.4805 44.3519 25.1972 43.6353 26.0614 43.6353H42.9247C43.7889 43.6353 44.5056 44.3519 44.5056 45.2162C44.5056 46.0804 43.7889 46.7971 42.9247 46.7971Z" fill="white"/>
</svg>
