<svg width="69" height="70" viewBox="0 0 69 70" fill="none" xmlns="http://www.w3.org/2000/svg">
<rect y="0.591797" width="68.986" height="68.986" rx="14.947" fill="#191E31"/>
<path fill-rule="evenodd" clip-rule="evenodd" d="M17.6937 18.2857C15.9868 19.9926 14.9949 22.6813 14.9949 26.6534V37.193C14.9949 42.3264 16.0355 44.8955 17.6168 46.2792C19.2504 47.7086 21.8735 48.2595 26.0614 48.2595H27.1153C27.7115 48.2595 28.2915 48.4455 28.7476 48.6716C29.198 48.8949 29.7074 49.2464 30.072 49.7424L33.2283 53.9508C33.6692 54.5387 34.1425 54.7097 34.493 54.7097C34.8435 54.7097 35.3169 54.5387 35.7578 53.9508L38.9196 49.735L38.9257 49.727C39.6206 48.8126 40.7157 48.2595 41.8707 48.2595H42.9246C46.8968 48.2595 49.5855 47.2675 51.2923 45.5607C52.9992 43.8538 53.9911 41.1651 53.9911 37.193V26.6534C53.9911 22.6813 52.9992 19.9926 51.2923 18.2857C49.5855 16.5789 46.8968 15.5869 42.9246 15.5869H26.0614C22.0893 15.5869 19.4005 16.5789 17.6937 18.2857ZM15.4579 16.05C17.9669 13.541 21.6019 12.425 26.0614 12.425H42.9246C47.3841 12.425 51.0191 13.541 53.5281 16.05C56.0371 18.5589 57.153 22.1939 57.153 26.6534V37.193C57.153 41.6525 56.0371 45.2875 53.5281 47.7964C51.0191 50.3054 47.3841 51.4213 42.9246 51.4213H41.8707C41.7198 51.4213 41.5515 51.4995 41.4452 51.6373C41.4445 51.6382 41.4438 51.6392 41.443 51.6402L38.2872 55.8479C37.3369 57.115 35.9764 57.8715 34.493 57.8715C33.0096 57.8715 31.6491 57.115 30.6988 55.8479L27.5343 51.6286C27.5296 51.6242 27.5201 51.6156 27.5047 51.6036C27.4665 51.5739 27.4112 51.5382 27.3433 51.5045C27.2755 51.4709 27.2109 51.4471 27.159 51.4331C27.1285 51.4249 27.1104 51.4221 27.1047 51.4213H26.0614C21.8176 51.4213 18.117 50.9182 15.5347 48.6588C12.9003 46.3536 11.833 42.599 11.833 37.193V26.6534C11.833 22.1939 12.949 18.5589 15.4579 16.05Z" fill="white"/>
<path fill-rule="evenodd" clip-rule="evenodd" d="M22.3726 26.6534C22.3726 25.7803 23.0804 25.0725 23.9535 25.0725H45.0326C45.9057 25.0725 46.6135 25.7803 46.6135 26.6534C46.6135 27.5266 45.9057 28.2344 45.0326 28.2344H23.9535C23.0804 28.2344 22.3726 27.5266 22.3726 26.6534Z" fill="white"/>
<path fill-rule="evenodd" clip-rule="evenodd" d="M22.3726 37.1925C22.3726 36.3194 23.0804 35.6116 23.9535 35.6116H36.6009C37.4741 35.6116 38.1819 36.3194 38.1819 37.1925C38.1819 38.0656 37.4741 38.7734 36.6009 38.7734H23.9535C23.0804 38.7734 22.3726 38.0656 22.3726 37.1925Z" fill="white"/>
</svg>
