<svg width="69" height="70" viewBox="0 0 69 70" fill="none" xmlns="http://www.w3.org/2000/svg">
<rect y="0.972168" width="68.986" height="68.986" rx="14.947" fill="#191E31"/>
<path d="M34.4931 58.1461C32.1955 58.1461 29.9189 57.4716 28.1272 56.1436L19.0632 49.3772C16.6602 47.5855 14.7842 43.8334 14.7842 40.8613V25.1784C14.7842 21.9323 17.1661 18.4753 20.2226 17.337L30.741 13.3952C32.8279 12.6153 36.1162 12.6153 38.203 13.3952L48.7215 17.337C51.7779 18.4753 54.1599 21.9323 54.1599 25.1784V40.8402C54.1599 43.8334 52.2838 47.5644 49.8808 49.3561L40.8168 56.1225C39.0673 57.4716 36.7907 58.1461 34.4931 58.1461ZM31.8582 16.3674L21.3398 20.3092C19.548 20.9837 17.9671 23.2603 17.9671 25.1995V40.8613C17.9671 42.8638 19.3794 45.6673 20.9603 46.8477L30.0243 53.6141C32.4484 55.4269 36.5378 55.4269 38.9829 53.6141L48.047 46.8477C49.649 45.6462 51.0402 42.8638 51.0402 40.8613V25.1784C51.0402 23.2603 49.4592 20.9837 47.6675 20.2881L37.1491 16.3463C35.7157 15.8404 33.2705 15.8404 31.8582 16.3674Z" fill="white"/>
<path d="M31.6686 40.1657C31.2681 40.1657 30.8676 40.0181 30.5514 39.7019L27.1577 36.3082C26.5464 35.6969 26.5464 34.6851 27.1577 34.0738C27.769 33.4625 28.7808 33.4625 29.3921 34.0738L31.6686 36.3503L39.6154 28.4035C40.2267 27.7922 41.2385 27.7922 41.8498 28.4035C42.4611 29.0148 42.4611 30.0266 41.8498 30.6379L32.7858 39.7019C32.4696 40.0181 32.0691 40.1657 31.6686 40.1657Z" fill="white"/>
</svg>
