<svg width="69" height="69" viewBox="0 0 69 69" fill="none" xmlns="http://www.w3.org/2000/svg">
<rect width="68.986" height="68.986" rx="14.947" fill="#191E31"/>
<path d="M39.3853 55.7146C36.7849 55.7146 33.1047 53.8855 30.1958 45.1367L28.6091 40.3767L23.849 38.79C15.1223 35.8811 13.2932 32.2009 13.2932 29.6005C13.2932 27.0221 15.1223 23.3199 23.849 20.3889L42.5586 14.1524C47.2305 12.5878 51.1311 13.0505 53.5332 15.4306C55.9352 17.8106 56.398 21.7332 54.8334 26.4051L48.5968 45.1147C45.6659 53.8855 41.9857 55.7146 39.3853 55.7146ZM24.8848 23.5403C18.7584 25.5897 16.5768 28.0138 16.5768 29.6005C16.5768 31.1872 18.7584 33.6113 24.8848 35.6387L30.4382 37.4898C30.923 37.6441 31.3197 38.0407 31.4739 38.5256L33.325 44.0789C35.3525 50.2053 37.7986 52.387 39.3853 52.387C40.972 52.387 43.396 50.2053 45.4455 44.0789L51.682 25.3694C52.8059 21.9756 52.6076 19.1989 51.1752 17.7665C49.7428 16.3341 46.9661 16.1578 43.5944 17.2817L24.8848 23.5403Z" fill="white"/>
<path d="M30.3279 39.7817C29.9092 39.7817 29.4905 39.6275 29.16 39.2969C28.5209 38.6578 28.5209 37.6001 29.16 36.961L37.0493 29.0496C37.6884 28.4105 38.7462 28.4105 39.3852 29.0496C40.0243 29.6887 40.0243 30.7465 39.3852 31.3856L31.4959 39.2969C31.1874 39.6275 30.7467 39.7817 30.3279 39.7817Z" fill="white"/>
</svg>
