<svg width="69" height="70" viewBox="0 0 69 70" fill="none" xmlns="http://www.w3.org/2000/svg">
<rect y="0.197266" width="68.986" height="68.986" rx="14.947" fill="#191E31"/>
<path fill-rule="evenodd" clip-rule="evenodd" d="M32.1353 16.7245C32.1351 16.7249 32.1355 16.7241 32.1353 16.7245L28.261 24.473C27.8482 25.3123 27.1586 26.0294 26.4504 26.5545C25.7402 27.0811 24.8576 27.5285 23.9494 27.6827L23.9436 27.6837L16.9146 28.8515C16.9143 28.8516 16.9149 28.8515 16.9146 28.8515C14.9542 29.1784 14.3155 29.9505 14.168 30.4125C14.0199 30.8762 14.0939 31.8769 15.4977 33.2807L20.9629 38.7459C21.6734 39.4564 22.1486 40.4065 22.4106 41.3219C22.6729 42.2381 22.771 43.2918 22.5529 44.2649L22.5505 44.2758L20.9858 51.0412C20.4031 53.5594 20.9925 54.4785 21.2918 54.697C21.5924 54.9163 22.651 55.1973 24.8787 53.8753L31.4801 49.9674C32.3968 49.4341 33.4944 49.2143 34.5013 49.2143C35.5064 49.2143 36.6045 49.4335 37.5166 49.9738C37.5164 49.9736 37.5169 49.9739 37.5166 49.9738L44.1044 53.8736C44.104 53.8733 44.1049 53.8738 44.1044 53.8736C46.3503 55.1998 47.4078 54.92 47.7031 54.7048C47.9955 54.4916 48.5849 53.578 48 51.04L46.4331 44.2649C46.215 43.2918 46.3131 42.2381 46.5754 41.3219C46.8374 40.4065 47.3127 39.4564 48.0231 38.7459L53.4884 33.2807L53.4924 33.2767C54.9054 31.8733 54.975 30.8752 54.8272 30.4155C54.6783 29.9521 54.0344 29.1789 52.0723 28.8516C52.072 28.8516 52.0725 28.8517 52.0723 28.8516L45.0424 27.6837C44.1249 27.5308 43.2354 27.0851 42.5194 26.5568C41.8064 26.0307 41.1161 25.3129 40.703 24.4731L36.8256 16.7183C35.8983 14.8539 34.9559 14.4782 34.4903 14.4782C34.0217 14.4782 33.0734 14.8586 32.1353 16.7245ZM39.7846 15.2447C38.6183 12.9008 36.7953 11.1726 34.4903 11.1726C32.1877 11.1726 30.359 12.8978 29.1818 15.24L25.3017 23.0002L25.2957 23.0123C25.1793 23.25 24.901 23.5883 24.4816 23.8992C24.0637 24.2091 23.6583 24.3786 23.3984 24.4234C23.3976 24.4235 23.3968 24.4236 23.396 24.4238L16.372 25.5908C13.8375 26.0132 11.7089 27.2466 11.0191 29.407C10.3297 31.5658 11.3466 33.8044 13.1603 35.6181L18.6255 41.0833C18.8406 41.2984 19.0816 41.7037 19.2327 42.2316C19.3829 42.7564 19.3956 43.2323 19.3283 43.5376C19.328 43.539 19.3277 43.5405 19.3274 43.5419L17.7652 50.2962C17.7652 50.2962 17.7653 50.2961 17.7652 50.2962C17.1139 53.1109 17.3398 55.9054 19.3434 57.3673C21.3456 58.8282 24.0774 58.1946 26.5657 56.718L33.1425 52.8246C33.1439 52.8238 33.1453 52.823 33.1467 52.8222C33.4425 52.6515 33.9297 52.5199 34.5013 52.5199C35.0771 52.5199 35.5543 52.6533 35.8321 52.8179L42.4219 56.7189C44.9131 58.1904 47.6483 58.8355 49.6504 57.3759C51.6553 55.9143 51.8703 53.1146 51.2211 50.2976L49.6587 43.5419C49.6584 43.5405 49.658 43.539 49.6577 43.5376C49.5904 43.2323 49.6031 42.7564 49.7533 42.2316C49.9045 41.7037 50.1454 41.2984 50.3605 41.0833L55.8218 35.6221C55.8225 35.6213 55.8233 35.6206 55.824 35.6199C57.6491 33.8062 58.6691 31.5658 57.9743 29.404C57.2803 27.245 55.1477 26.013 52.6149 25.5909L45.585 24.4229C45.5847 24.4229 45.5853 24.423 45.585 24.4229M39.7846 15.2447C39.7843 15.2442 39.7848 15.2452 39.7846 15.2447V15.2447Z" fill="white"/>
</svg>
