<svg width="68" height="67" viewBox="0 0 68 67" fill="none" xmlns="http://www.w3.org/2000/svg">
<rect x="0.363647" width="67" height="67" rx="12" fill="#03A9F4"/>
<path d="M55.9322 20.2583C54.2999 20.9711 52.5734 21.4447 50.8058 21.6644C52.6691 20.5595 54.0619 18.809 54.72 16.7452C52.9761 17.7803 51.0678 18.5093 49.0779 18.9006C47.8585 17.5966 46.2749 16.6896 44.5331 16.2977C42.7913 15.9059 40.9719 16.0472 39.3114 16.7034C37.651 17.3595 36.2265 18.5002 35.2232 19.9769C34.2198 21.4537 33.684 23.1982 33.6856 24.9835C33.6793 25.665 33.7488 26.3451 33.8927 27.0112C30.3531 26.8373 26.8899 25.9187 23.7294 24.3153C20.569 22.7119 17.7823 20.4598 15.5515 17.7061C14.4048 19.665 14.0496 21.9879 14.5583 24.2C15.0671 26.4121 16.4015 28.3463 18.2888 29.6074C16.8801 29.5695 15.5013 29.193 14.2688 28.5099V28.6068C14.2727 30.6601 14.9835 32.6495 16.2815 34.2405C17.5795 35.8315 19.3856 36.9272 21.3963 37.3433C20.6354 37.5432 19.8513 37.641 19.0646 37.6342C18.4981 37.6447 17.9321 37.5944 17.3763 37.4843C17.9524 39.2502 19.0614 40.7943 20.5509 41.9041C22.0404 43.0139 23.8372 43.6349 25.694 43.6818C22.5473 46.1414 18.6682 47.4774 14.6743 47.477C13.9627 47.4831 13.2514 47.4419 12.5453 47.3536C16.6176 49.9792 21.3644 51.3665 26.2098 51.3472C42.5851 51.3472 51.5375 37.7841 51.5375 26.0282C51.5375 25.6359 51.5375 25.2568 51.5067 24.8778C53.2501 23.6195 54.7498 22.0541 55.9322 20.2583Z" fill="white"/>
</svg>
